<?xml version="1.0" encoding="utf-8"?>
<!-- Generator: Adobe Illustrator 23.0.3, SVG Export Plug-In . SVG Version: 6.00 Build 0)  -->
<svg version="1.1" id="Layer_1" xmlns="http://www.w3.org/2000/svg" xmlns:xlink="http://www.w3.org/1999/xlink" x="0px" y="0px"
	 viewBox="0 0 98 30" style="enable-background:new 0 0 98 30;" xml:space="preserve">
<style type="text/css">
	.st0{clip-path:url(#SVGID_2_);}
	.st1{fill:#0066CC;}
	.st2{clip-path:url(#SVGID_4_);}
</style>
<title>Asset 1</title>
<desc>Created with Sketch.</desc>
<g>
	<g>
		<g>
			<defs>
				<rect id="SVGID_1_" x="2" y="5.9" width="16.3" height="7.6"/>
			</defs>
			<clipPath id="SVGID_2_">
				<use xlink:href="#SVGID_1_"  style="overflow:visible;"/>
			</clipPath>
			<g class="st0">
				<path class="st1" d="M3.4,11.9c1.3-2.4,3.7-4.1,6.4-4.1c3.2,0,5.9,2.2,6.9,5.3c0.3-0.5,0.6-1,1-1.4l0.2-0.2
					C16.4,8.2,13.4,6,9.8,6c-3.1,0-5.9,1.8-7.5,4.4l0.1,0.1C2.8,10.9,3.1,11.4,3.4,11.9"/>
			</g>
		</g>
	</g>
	<g>
		<g>
			<defs>
				<path id="SVGID_3_" d="M0.8,10.9h18.1v11.2c0,2.1-1.5,3.8-3.4,3.8H0.8V10.9z"/>
			</defs>
			<clipPath id="SVGID_4_">
				<use xlink:href="#SVGID_3_"  style="overflow:visible;"/>
			</clipPath>
			<g class="st2">
				<path class="st1" d="M18.8,16.4c0-0.1,0-0.1,0-0.2c0-0.1,0-0.1,0-0.2c0-1.3-0.2-2.5-0.6-3.6c-1.2,1.3-2.4,4.8-3.7,4.8
					c-1.3,0-2.4-4.1-3.7-4.1c-1.4,0-2.6,4.5-4.1,4.5c-1.7,0-3.3-4.7-4.9-6.5c-0.6,1.2-1,2.6-1.1,4.1c1.5,3,4.3,6.3,6,6.1
					c2.3-0.2,2.9-5,4.5-5c1.2,0,2.2,3.2,3.3,3.6c0.6,0.2,1.2,0,1.9-0.5c-1.2,2.7-3.7,4.6-6.6,4.6c-2.4,0-4.5-1.3-5.9-3.2
					c-1.2-1-2.3-2.5-3.1-4c0.4,5.1,4.3,9,9,9C14.7,25.9,18.6,21.7,18.8,16.4L18.8,16.4"/>
			</g>
		</g>
	</g>
	<g>
		<g transform="matrix(1, 0, 0, 1, 95.12167358398438, 163.19154357910156)">
			<path class="st1" d="M-58.8-150.9c0,0.4-0.1,0.7-0.2,0.9c-0.2,0.3-0.3,0.5-0.6,0.6c-0.2,0.1-0.5,0.2-0.7,0.2
				c-0.2,0-0.4-0.1-0.6-0.2c-0.2-0.1-0.3-0.2-0.4-0.4l-3.3,6.1c-0.3,0.5-0.5,0.8-0.7,1c-0.2,0.2-0.4,0.3-0.7,0.3c-0.6,0-1-0.4-1-1.3
				l-0.4-4.4l-2.7,4.4c-0.3,0.5-0.6,0.9-0.8,1c-0.2,0.2-0.4,0.3-0.7,0.3c-0.6,0-0.9-0.5-1-1.4l-0.9-6.8c0-0.2-0.1-0.4-0.2-0.5
				c-0.1-0.1-0.2-0.2-0.3-0.4c-0.1-0.1-0.1-0.1-0.2-0.2c0-0.1-0.1-0.1-0.1-0.2c0-0.4,0.2-0.6,0.6-0.6h3.4c0.2,0,0.4,0,0.5,0.1
				c0.1,0.1,0.2,0.2,0.1,0.4c0,0.1,0,0.2-0.1,0.2c0,0.1-0.1,0.1-0.1,0.2c-0.1,0.1-0.2,0.2-0.2,0.3c0,0.1-0.1,0.3,0,0.4l0.4,3.6
				l2-3.2l0-0.4c0-0.2-0.1-0.3-0.1-0.5c-0.1-0.1-0.2-0.2-0.3-0.3c-0.1-0.1-0.2-0.2-0.2-0.2c0-0.1-0.1-0.1-0.1-0.2
				c0-0.4,0.2-0.6,0.6-0.6h3.4c0.2,0,0.4,0,0.5,0.1c0.1,0.1,0.2,0.2,0.2,0.4c0,0.1-0.1,0.3-0.2,0.4c-0.1,0.1-0.2,0.2-0.2,0.3
				c0,0.1-0.1,0.3-0.1,0.4l0.2,3.3l1.8-3.6c0.3-0.6,0.6-1,0.9-1.2c0.3-0.2,0.7-0.3,1.1-0.3c0.4,0,0.7,0.1,1,0.4
				C-59-151.7-58.8-151.3-58.8-150.9z"/>
		</g>
	</g>
	<g>
		<g transform="matrix(1, 0, 0, 1, 138.58480834960938, 163.19154357910156)">
			<path class="st1" d="M-98.6-150.2c1.2,0,2.1,0.3,2.7,0.8c0.6,0.6,0.9,1.3,0.9,2.2c0,0.3,0,0.6-0.1,1c-0.2,0.8-0.5,1.6-1,2.2
				c-0.5,0.6-1,1.1-1.7,1.4c-0.7,0.3-1.4,0.5-2.2,0.5c-1.3,0-2.2-0.3-2.8-0.8c-0.6-0.6-0.9-1.3-0.9-2.2c0-0.3,0-0.7,0.1-1
				c0.2-0.8,0.5-1.5,1-2.1c0.5-0.6,1.1-1.1,1.8-1.4C-100.1-150.1-99.4-150.2-98.6-150.2z M-98.6-148.9c-0.2,0-0.4,0.2-0.6,0.6
				c-0.2,0.4-0.5,1.1-0.8,2.1c-0.3,1-0.4,1.8-0.4,2.2c0,0.2,0,0.4,0.1,0.4c0.1,0.1,0.1,0.1,0.3,0.1c0.2,0,0.4-0.2,0.6-0.5
				c0.2-0.4,0.5-1.1,0.8-2.2c0.3-1,0.4-1.7,0.4-2.1c0-0.2,0-0.4-0.1-0.4C-98.4-148.8-98.5-148.9-98.6-148.9z"/>
		</g>
	</g>
	<g>
		<g transform="matrix(1, 0, 0, 1, 163.50770568847656, 163.19154357910156)">
			<path class="st1" d="M-113.2-150.2c0.5,0,0.9,0.2,1.2,0.5c0.3,0.3,0.5,0.8,0.5,1.3c0,0.2,0,0.4-0.1,0.5c-0.1,0.4-0.3,0.7-0.5,0.9
				c-0.3,0.2-0.6,0.3-0.9,0.3c-0.3,0-0.6-0.1-0.8-0.3c-0.2-0.2-0.3-0.4-0.5-0.7c-0.1-0.2-0.1-0.3-0.2-0.4c-0.1-0.1-0.1-0.1-0.2-0.1
				c-0.1,0-0.2,0-0.2,0.1c-0.1,0.1-0.1,0.2-0.2,0.4l-1,3.8c0,0,0,0.1,0,0.2c0,0.1,0,0.2,0.1,0.3c0.1,0.1,0.2,0.2,0.3,0.2
				c0.1,0.1,0.2,0.1,0.2,0.2c0,0,0.1,0.1,0,0.2c0,0.1-0.1,0.2-0.2,0.3c-0.1,0.1-0.3,0.1-0.6,0.1h-3.5c-0.2,0-0.4,0-0.5-0.1
				c-0.1-0.1-0.1-0.2-0.1-0.3c0-0.1,0.1-0.2,0.3-0.3c0.1-0.1,0.2-0.2,0.3-0.3c0.1-0.1,0.2-0.3,0.2-0.5l1.2-4.4c0,0,0-0.1,0-0.2
				c0-0.1,0-0.2-0.1-0.3c0-0.1-0.1-0.1-0.2-0.2c-0.1-0.1-0.2-0.1-0.2-0.2c0-0.1,0-0.1,0-0.2c0.1-0.2,0.3-0.4,0.8-0.6
				c0.5-0.2,1.1-0.3,1.6-0.3c0.4,0,0.7,0.1,0.9,0.3c0.2,0.2,0.4,0.5,0.5,0.8C-114.4-149.9-113.9-150.2-113.2-150.2z"/>
		</g>
	</g>
	<g>
		<g transform="matrix(1, 0, 0, 1, 185.5052032470703, 163.19154357910156)">
			<path class="st1" d="M-127.9-150c0.2,0,0.3,0,0.4,0.1c0.1,0.1,0.1,0.2,0.1,0.3c0,0,0,0.1,0,0.2c-0.1,0.4-0.4,0.7-0.8,0.7h-0.8
				l-1,3.7c0,0.1-0.1,0.3-0.1,0.5c0,0.2,0,0.3,0.1,0.4c0.1,0.1,0.2,0.1,0.4,0.1c0.1,0,0.3,0,0.5-0.1c0.1,0,0.2,0,0.3,0
				c0.1,0,0.1,0,0.1,0.1c0,0,0.1,0.1,0.1,0.2c0,0.2-0.1,0.4-0.4,0.7c-0.3,0.3-0.7,0.5-1.1,0.7c-0.5,0.2-1,0.3-1.6,0.3
				c-0.6,0-1.1-0.2-1.5-0.5c-0.4-0.3-0.6-0.7-0.6-1.3c0-0.3,0-0.5,0.1-0.7l0.9-3c0-0.2,0.1-0.3,0.1-0.4c0-0.2,0-0.4-0.1-0.5
				c-0.1-0.1-0.2-0.3-0.4-0.4c-0.1-0.1-0.2-0.3-0.3-0.4c-0.1-0.1-0.1-0.2,0-0.3c0-0.1,0.1-0.2,0.2-0.3c0.1-0.1,0.3-0.1,0.6-0.1h0.8
				l0.9-0.9c0.3-0.3,0.6-0.6,0.8-0.7c0.2-0.1,0.6-0.2,1-0.2c0.6,0,0.9,0.2,0.9,0.7c0,0.2,0,0.3-0.1,0.4l-0.2,0.7L-127.9-150
				L-127.9-150z"/>
		</g>
	</g>
	<g>
		<g transform="matrix(1, 0, 0, 1, 201.84185791015625, 163.19154357910156)">
			<path class="st1" d="M-136.2-144.3c0,0,0,0.1,0,0.2c0,0.1,0,0.1,0,0.2c0,0,0.1,0.1,0.1,0.1c0.1,0,0.2-0.1,0.3-0.2
				c0.1-0.1,0.1-0.2,0.2-0.2c0,0,0.1,0,0.1,0.1c0,0.1,0,0.1,0,0.2c0,0.3-0.1,0.6-0.3,0.9c-0.2,0.3-0.4,0.5-0.8,0.7
				c-0.3,0.2-0.8,0.3-1.3,0.3c-0.6,0-1.1-0.2-1.4-0.5c-0.4-0.3-0.5-0.7-0.5-1.2c0-0.4,0.1-0.8,0.2-1.3l0.7-2.2
				c0-0.1,0.1-0.2,0.1-0.3c0-0.1,0-0.2-0.1-0.3c-0.1-0.1-0.2-0.1-0.3-0.1c-0.2,0-0.3,0.1-0.5,0.3c-0.2,0.2-0.3,0.5-0.4,0.8v0
				l-0.9,3.1c0,0.1,0,0.2,0,0.3c0,0.1,0,0.2,0.1,0.3c0,0.1,0.1,0.1,0.2,0.2c0.1,0.1,0.1,0.1,0.1,0.2c0,0,0,0.1,0,0.2
				c0,0.1-0.1,0.2-0.3,0.3c-0.1,0.1-0.3,0.1-0.6,0.1h-3.1c-0.2,0-0.4,0-0.5-0.1c-0.1-0.1-0.1-0.2-0.1-0.3c0-0.1,0.1-0.2,0.3-0.3
				c0.1-0.1,0.2-0.2,0.3-0.3c0.1-0.1,0.2-0.3,0.2-0.5l2.1-7.5c0-0.1,0-0.2,0-0.2c0-0.1,0-0.2-0.1-0.3c0-0.1-0.1-0.1-0.2-0.2
				c-0.1-0.1-0.2-0.1-0.2-0.2c0-0.1,0-0.1,0-0.2c0.1-0.2,0.3-0.4,0.9-0.6c0.5-0.2,1.1-0.3,1.6-0.3c0.5,0,0.9,0.1,1.2,0.3
				c0.2,0.2,0.4,0.5,0.4,0.9c0,0.2,0,0.4-0.1,0.7l-0.7,2.7c0.4-0.5,0.7-0.9,1.1-1.1c0.4-0.2,0.8-0.3,1.3-0.3c0.5,0,1,0.2,1.3,0.6
				c0.3,0.4,0.5,0.9,0.5,1.5c0,0.3,0,0.6-0.1,0.9L-136.2-144.3z"/>
		</g>
	</g>
	<g>
		<g transform="matrix(1, 0, 0, 1, 228.8163604736328, 163.19154357910156)">
			<path class="st1" d="M-157.2-150.3c1.1,0,2,0.2,2.5,0.6c0.5,0.4,0.8,0.9,0.8,1.6c0,0.2,0,0.4-0.1,0.5c-0.1,0.7-0.5,1.1-1.1,1.4
				c-0.6,0.3-1.3,0.4-2.2,0.4c-0.4,0-0.8,0-1.2-0.1c0,0.5,0.1,0.9,0.4,1.1c0.3,0.2,0.6,0.3,1.1,0.3c0.2,0,0.4,0,0.6-0.1
				c0.2-0.1,0.5-0.1,0.8-0.3c0.3-0.1,0.4-0.1,0.5-0.1c0.1,0,0.1,0.1,0.1,0.2c0,0.4-0.1,0.7-0.4,1.1c-0.2,0.4-0.6,0.7-1.1,1
				c-0.5,0.3-1.1,0.4-1.7,0.4c-1,0-1.8-0.3-2.5-0.8c-0.6-0.6-1-1.4-1-2.5c0-0.3,0-0.7,0.1-1.1c0.2-1.2,0.7-2.2,1.5-2.8
				C-159.2-150-158.3-150.3-157.2-150.3z M-158.4-146.8c0,0,0.1,0,0.2,0c0.4,0,0.7-0.2,0.9-0.6c0.2-0.4,0.3-0.8,0.3-1.3
				c0-0.3-0.1-0.4-0.2-0.4c-0.1,0-0.2,0.1-0.4,0.3c-0.1,0.2-0.3,0.4-0.4,0.8C-158.2-147.6-158.3-147.2-158.4-146.8z"/>
		</g>
	</g>
	<g>
		<g transform="matrix(1, 0, 0, 1, 250.09201049804688, 163.19154357910156)">
			<path class="st1" d="M-167.4-144.3c0,0.1,0,0.1,0,0.2c0,0.1,0,0.1,0,0.2c0,0,0.1,0.1,0.1,0.1c0.1,0,0.2-0.1,0.3-0.2
				c0.1-0.1,0.1-0.2,0.2-0.2c0,0,0.1,0,0.1,0.1c0,0.1,0.1,0.1,0.1,0.2c0,0.3-0.1,0.6-0.3,0.8c-0.2,0.3-0.5,0.5-0.8,0.7
				c-0.3,0.2-0.7,0.3-1.1,0.3c-0.5,0-1-0.1-1.3-0.4c-0.3-0.2-0.5-0.6-0.6-1c-0.3,0.4-0.7,0.7-1.1,0.9c-0.4,0.2-0.8,0.3-1.2,0.3
				c-0.6,0-1.2-0.2-1.6-0.5c-0.4-0.3-0.6-0.8-0.6-1.5c0-0.3,0-0.6,0.1-0.9l0.9-3.2c0-0.1,0-0.2,0-0.2c0-0.1,0-0.2-0.1-0.3
				c0-0.1-0.1-0.1-0.2-0.2c-0.1-0.1-0.2-0.1-0.2-0.2c0-0.1,0-0.1,0-0.2c0.1-0.2,0.3-0.4,0.9-0.6c0.5-0.2,1.1-0.3,1.6-0.3
				c0.5,0,0.9,0.1,1.2,0.3c0.2,0.2,0.4,0.5,0.4,0.9c0,0.2,0,0.5-0.1,0.7l-0.9,3.1c0,0.1-0.1,0.2-0.1,0.3c0,0.1,0,0.2,0.1,0.3
				c0.1,0.1,0.2,0.1,0.3,0.1c0.2,0,0.3-0.1,0.4-0.2c0.1-0.1,0.2-0.3,0.3-0.6l0.8-3c0-0.1,0-0.2,0-0.2c0-0.1,0-0.2-0.1-0.3
				c0-0.1-0.1-0.1-0.2-0.2c-0.1-0.1-0.2-0.1-0.2-0.2c0-0.1,0-0.1,0-0.2c0-0.2,0.3-0.4,0.8-0.6c0.5-0.2,1.1-0.3,1.6-0.3
				c0.5,0,0.9,0.1,1.2,0.3c0.2,0.2,0.4,0.5,0.4,0.9c0,0.2,0,0.4-0.1,0.7L-167.4-144.3z"/>
		</g>
	</g>
	<g>
		<g transform="matrix(1, 0, 0, 1, 276.1546630859375, 163.19154357910156)">
			<path class="st1" d="M-179.3-144.3c0,0,0,0.1,0,0.2c0,0.1,0,0.1,0,0.2c0,0,0.1,0.1,0.1,0.1c0.1,0,0.2-0.1,0.3-0.2
				c0.1-0.1,0.1-0.2,0.2-0.2c0,0,0.1,0,0.1,0.1c0,0.1,0,0.1,0,0.2c0,0.3-0.1,0.6-0.3,0.9c-0.2,0.3-0.4,0.5-0.8,0.7
				c-0.3,0.2-0.8,0.3-1.3,0.3c-0.6,0-1.1-0.2-1.4-0.5c-0.4-0.3-0.5-0.7-0.5-1.2c0-0.4,0.1-0.8,0.2-1.3l0.7-2.2
				c0-0.1,0.1-0.2,0.1-0.3c0-0.1,0-0.2-0.1-0.3c-0.1-0.1-0.2-0.1-0.3-0.1c-0.2,0-0.3,0.1-0.5,0.2c-0.2,0.1-0.3,0.4-0.4,0.7l-0.7,2.7
				c0,0,0,0.1,0,0.2c0,0.1,0,0.1,0,0.2c0,0,0.1,0.1,0.1,0.1c0.1,0,0.2-0.1,0.3-0.2c0.1-0.1,0.1-0.2,0.2-0.2c0,0,0.1,0,0.1,0.1
				c0,0.1,0,0.1,0,0.2c0,0.3-0.1,0.6-0.3,0.9c-0.2,0.3-0.4,0.5-0.8,0.7c-0.3,0.2-0.8,0.3-1.3,0.3c-0.6,0-1.1-0.2-1.4-0.5
				c-0.4-0.3-0.5-0.7-0.5-1.2c0-0.4,0.1-0.8,0.2-1.3l0.7-2.2c0-0.1,0.1-0.2,0.1-0.3c0-0.1,0-0.2-0.1-0.3c-0.1-0.1-0.2-0.1-0.3-0.1
				c-0.2,0-0.3,0.1-0.5,0.2c-0.2,0.1-0.3,0.4-0.4,0.7l-0.9,3.2c0,0.1-0.1,0.2-0.1,0.3c0,0.1,0,0.2,0.1,0.3c0,0.1,0.1,0.2,0.2,0.2
				c0.1,0.1,0.1,0.1,0.1,0.2c0,0,0,0.1,0,0.2c0,0.1-0.1,0.2-0.3,0.3c-0.1,0.1-0.3,0.1-0.6,0.1h-3.1c-0.2,0-0.4,0-0.5-0.1
				c-0.1-0.1-0.1-0.2-0.1-0.3c0-0.1,0.1-0.2,0.3-0.3c0.1-0.1,0.2-0.2,0.3-0.3c0.1-0.1,0.2-0.3,0.2-0.5l1.2-4.4c0,0,0-0.1,0-0.2
				c0-0.1,0-0.2-0.1-0.3c0-0.1-0.1-0.1-0.2-0.2c-0.1-0.1-0.2-0.1-0.2-0.2c0-0.1,0-0.1,0-0.2c0.1-0.2,0.3-0.4,0.8-0.6
				c0.5-0.2,1.1-0.3,1.6-0.3c0.4,0,0.8,0.1,1,0.4c0.3,0.3,0.4,0.6,0.4,1.1c0.4-0.6,0.8-1,1.2-1.2c0.4-0.2,0.9-0.3,1.3-0.3
				c0.5,0,1,0.2,1.3,0.5c0.3,0.3,0.5,0.8,0.6,1.3c0.4-0.7,0.8-1.2,1.2-1.4c0.4-0.3,0.9-0.4,1.5-0.4c0.5,0,1,0.2,1.3,0.6
				c0.3,0.4,0.5,0.9,0.5,1.5c0,0.3,0,0.6-0.1,0.9L-179.3-144.3z"/>
		</g>
	</g>
</g>
</svg>
