<?xml version="1.0" encoding="utf-8"?>
<!-- Generator: Adobe Illustrator 23.0.3, SVG Export Plug-In . SVG Version: 6.00 Build 0)  -->
<svg version="1.1" id="Layer_1" xmlns="http://www.w3.org/2000/svg" xmlns:xlink="http://www.w3.org/1999/xlink" x="0px" y="0px"
	 viewBox="0 0 30 30" style="enable-background:new 0 0 30 30;" xml:space="preserve">
<style type="text/css">
	.st0{clip-path:url(#SVGID_2_);}
	.st1{fill:#00CC99;}
	.st2{clip-path:url(#SVGID_4_);}
</style>
<title>steem</title>
<desc>Created with Sketch.</desc>
<g>
	<g>
		<g>
			<g>
				<defs>
					<rect id="SVGID_1_" x="2.4" y="0.7" width="26.2" height="10.9"/>
				</defs>
				<clipPath id="SVGID_2_">
					<use xlink:href="#SVGID_1_"  style="overflow:visible;"/>
				</clipPath>
				<g class="st0">
					<path class="st1" d="M4.7,9.3c2-3.6,5.9-5.9,10.3-5.9c5.1,0,9.4,3.2,11.2,7.7c0.5-0.8,1-1.5,1.6-2L28,8.8
						C25.6,4,20.7,0.7,15,0.7c-5.1,0-9.4,2.5-12,6.4l0.2,0.2C3.7,7.9,4.2,8.6,4.7,9.3"/>
				</g>
			</g>
		</g>
	</g>
	<g>
		<g>
			<g>
				<defs>
					<path id="SVGID_3_" d="M0.5,7.9h29v16.2c0,3-2.5,5.6-5.6,5.6H0.5V7.9z"/>
				</defs>
				<clipPath id="SVGID_4_">
					<use xlink:href="#SVGID_3_"  style="overflow:visible;"/>
				</clipPath>
				<g class="st2">
					<path class="st1" d="M29.5,15.8c0-0.1,0-0.2,0-0.3s0-0.2,0-0.3c0-1.9-0.4-3.6-1-5.2c-1.9,1.9-3.9,7-5.9,7
						c-2.1,0-3.9-5.9-5.9-5.9c-2.3,0-4.2,6.5-6.5,6.5c-2.8,0-5.4-6.8-7.9-9.3c-1,1.8-1.6,3.8-1.8,5.9c2.4,4.4,6.8,9.1,9.6,8.9
						c3.7-0.3,4.7-7.2,7.3-7.2c1.9,0,3.5,4.7,5.3,5.3c1,0.3,2-0.1,3-0.7C23.8,24.3,19.8,27,15,27c-3.9,0-7.3-1.9-9.4-4.7
						c-1.9-1.5-3.6-3.7-5.1-5.7c0.7,7.3,6.9,13,14.4,13C22.8,29.6,29.2,23.5,29.5,15.8L29.5,15.8"/>
				</g>
			</g>
		</g>
	</g>
</g>
</svg>
